<svg width="127" height="127" viewBox="0 0 127 127" fill="none" xmlns="http://www.w3.org/2000/svg">
<path d="M78.1077 21.5795C72.4769 20.3674 66.5999 21.7658 62.1188 25.3845C57.6377 29.0031 55.0325 34.4536 55.0317 40.2136C55.0275 42.4846 56.237 44.5851 58.2029 45.7218C60.1692 46.8586 62.5928 46.8586 64.559 45.7218C66.5252 44.5851 67.7344 42.4846 67.7302 40.2136C67.7307 38.2759 68.6142 36.4444 70.1302 35.2376C71.6463 34.0309 73.6293 33.5807 75.5177 34.0148C77.9006 34.532 79.7611 36.394 80.2771 38.7772C80.6692 40.5331 80.3093 42.3728 79.2849 43.8516C78.2818 45.2853 76.7328 46.243 75.002 46.4994C70.8428 47.1056 67.7515 50.6616 67.7302 54.8646V61.3819C67.7302 64.8887 70.573 67.7317 74.08 67.7317C77.5868 67.7317 80.4299 64.8889 80.4299 61.3819V58.1759C88.4666 55.3369 93.641 47.5065 93.1013 38.9999C92.5615 30.4934 86.4389 23.3798 78.1077 21.5795ZM86.2186 48.709C84.1919 51.6011 81.2015 53.6772 77.783 54.5647C76.8489 54.8058 76.1963 55.6484 76.1966 56.613V61.3816C76.1966 62.5506 75.2488 63.4982 74.08 63.4982C72.911 63.4982 71.9635 62.5506 71.9635 61.3816V54.8644C71.9754 52.7644 73.5227 50.9895 75.6015 50.6911C78.515 50.2642 81.1202 48.6452 82.793 46.2216C84.4657 43.7983 85.0556 40.7883 84.4216 37.9128C83.5497 33.8878 80.4066 30.7434 76.3818 29.87C75.6159 29.7073 74.8353 29.625 74.0523 29.624C71.6301 29.618 69.2817 30.4554 67.41 31.9928C64.9306 34.0009 63.4922 37.0225 63.4971 40.2133C63.4996 40.9709 63.0968 41.6721 62.441 42.0516C61.7852 42.4311 60.9768 42.4311 60.321 42.0516C59.6651 41.6721 59.2626 40.9711 59.2648 40.2133C59.2566 35.7484 61.2697 31.5195 64.7403 28.7105C70.4755 24.0431 78.7744 24.3196 84.1862 29.3586C89.5979 34.3975 90.4653 42.6555 86.2186 48.709Z" fill="#470A68"/>
<path d="M74.0813 71.9648C70.5745 71.9648 67.7314 74.8076 67.7314 78.3146C67.7314 81.8216 70.5742 84.6644 74.0813 84.6644C77.5883 84.6644 80.4311 81.8214 80.4311 78.3146C80.4274 74.8093 77.5866 71.9685 74.0813 71.9648ZM74.0813 80.4311C72.9123 80.4311 71.9648 79.4836 71.9648 78.3146C71.9648 77.1456 72.9123 76.1981 74.0813 76.1981C75.2503 76.1981 76.1978 77.1456 76.1978 78.3146C76.1968 79.4831 75.2498 80.4301 74.0813 80.4311Z" fill="#470A68"/>
<path d="M124.158 35.8069C116.843 14.3886 96.7143 -0.00445308 74.0814 1.16526e-05C54.6037 -0.0128865 36.6957 10.6826 27.4716 27.8379C18.2474 44.9931 19.2009 65.83 29.9527 82.0712L21.1741 90.8496L21.1721 90.8508L21.1709 90.8528L13.6805 98.3429L13.6793 98.3437L13.6785 98.3449L3.09614 108.927C-1.03399 113.062 -1.03176 119.762 3.1011 123.895C7.23395 128.028 13.934 128.03 18.0696 123.9L28.6515 113.318L28.6528 113.317L28.6535 113.316L36.1436 105.826L36.1456 105.825L36.1468 105.823L44.9252 97.0439C63.808 109.521 88.5365 108.605 106.444 94.7649C124.352 80.9245 131.472 57.2252 124.158 35.8069ZM15.0767 120.907C12.5591 123.301 8.6071 123.301 6.08949 120.907C3.6133 118.423 3.6133 114.404 6.08949 111.92L15.1762 102.834L24.1635 111.821L15.0767 120.907ZM27.1561 108.828L18.1691 99.8406L22.669 95.3406L31.6558 104.327L27.1561 108.828ZM34.6486 101.335L25.6621 92.348L32.4679 85.5423C35.0946 88.8851 38.1115 91.9018 41.4541 94.5285L34.6486 101.335ZM74.0814 101.597C47.195 101.597 25.3992 79.8016 25.3992 52.9153C25.3992 26.0289 47.195 4.23307 74.0814 4.23307C100.968 4.23307 122.764 26.0289 122.764 52.9153C122.733 79.7892 100.955 101.567 74.0814 101.597Z" fill="#470A68"/>
<path d="M74.0813 8.4664C49.533 8.4664 29.6324 28.3669 29.6324 52.9153C29.6324 77.4636 49.533 97.3642 74.0813 97.3642C98.6296 97.3642 118.53 77.4636 118.53 52.9153C118.502 28.3784 98.6182 8.49418 74.0813 8.4664ZM74.0813 93.1308C51.8708 93.1308 33.8658 75.1256 33.8658 52.9153C33.8658 30.705 51.871 12.6997 74.0813 12.6997C96.2916 12.6997 114.297 30.705 114.297 52.9153C114.272 75.1154 96.2814 93.1058 74.0813 93.1308Z" fill="#470A68"/>
</svg>
