<svg width="139" height="139" viewBox="0 0 139 139" fill="none" xmlns="http://www.w3.org/2000/svg">
<path d="M69.5 0C73.4818 0 77.3278 0.520345 81.0381 1.56104C84.7484 2.60173 88.2098 4.04964 91.4224 5.90479C94.6349 7.75993 97.5534 10.0223 100.178 12.6919C102.802 15.3615 105.064 18.3026 106.965 21.5151C108.865 24.7277 110.336 28.1891 111.376 31.8994C112.417 35.6097 112.938 39.4557 112.938 43.4375C112.938 46.5596 112.576 49.5233 111.852 52.3286C111.128 55.134 110.042 57.9619 108.594 60.8125L69.5 139L30.4062 60.8125C29.0036 58.0072 27.9403 55.2018 27.2163 52.3965C26.4924 49.5911 26.1077 46.6048 26.0625 43.4375C26.0625 39.4557 26.5828 35.6097 27.6235 31.8994C28.6642 28.1891 30.1121 24.7277 31.9673 21.5151C33.8224 18.3026 36.0848 15.3841 38.7544 12.7598C41.424 10.1354 44.3651 7.87305 47.5776 5.97266C50.7902 4.07227 54.2516 2.60173 57.9619 1.56104C61.6722 0.520345 65.5182 0 69.5 0ZM101.807 57.4189V57.3511L101.875 57.2832C103.006 55.1566 103.865 52.9168 104.454 50.564C105.042 48.2111 105.336 45.8356 105.336 43.4375C105.336 38.5055 104.408 33.8677 102.553 29.5239C100.698 25.1802 98.119 21.3794 94.8159 18.1216C91.5129 14.8638 87.7121 12.3073 83.4136 10.4521C79.1151 8.597 74.4772 7.64681 69.5 7.60156C64.568 7.60156 59.9302 8.52913 55.5864 10.3843C51.2427 12.2394 47.4419 14.8185 44.1841 18.1216C40.9263 21.4246 38.3698 25.2254 36.5146 29.5239C34.6595 33.8224 33.7093 38.4603 33.6641 43.4375C33.6641 45.8356 33.9582 48.2111 34.5464 50.564C35.1346 52.9168 35.9943 55.1566 37.1255 57.2832V57.3511L37.1934 57.4189L69.5 122.032L101.807 57.4189ZM69.5 17.918C73.0293 17.918 76.3324 18.5741 79.4092 19.8862C82.486 21.1984 85.2008 23.0309 87.5537 25.3838C89.9066 27.7367 91.7165 30.4289 92.9834 33.4604C94.2503 36.492 94.929 39.8177 95.0195 43.4375C95.0195 46.9668 94.3634 50.2699 93.0513 53.3467C91.7391 56.4235 89.9066 59.1383 87.5537 61.4912C85.2008 63.8441 82.5086 65.654 79.4771 66.9209C76.4455 68.1878 73.1198 68.8665 69.5 68.957C65.9707 68.957 62.6676 68.3009 59.5908 66.9888C56.514 65.6766 53.7992 63.8441 51.4463 61.4912C49.0934 59.1383 47.2835 56.4461 46.0166 53.4146C44.7497 50.383 44.071 47.0573 43.9805 43.4375C43.9805 39.9082 44.6366 36.6051 45.9487 33.5283C47.2609 30.4515 49.0934 27.7367 51.4463 25.3838C53.7992 23.0309 56.4914 21.221 59.5229 19.9541C62.5545 18.6872 65.8802 18.0085 69.5 17.918ZM69.5 61.3555C71.9886 61.3555 74.3188 60.903 76.4907 59.998C78.6626 59.0931 80.563 57.8035 82.1919 56.1294C83.8208 54.4552 85.0877 52.5549 85.9927 50.4282C86.8976 48.3016 87.3727 45.9714 87.418 43.4375C87.418 40.9489 86.9655 38.6187 86.0605 36.4468C85.1556 34.2749 83.866 32.3745 82.1919 30.7456C80.5177 29.1167 78.6174 27.8498 76.4907 26.9448C74.3641 26.0399 72.0339 25.5648 69.5 25.5195C67.0114 25.5195 64.6812 25.972 62.5093 26.877C60.3374 27.7819 58.437 29.0715 56.8081 30.7456C55.1792 32.4198 53.9123 34.3201 53.0073 36.4468C52.1024 38.5734 51.6273 40.9036 51.582 43.4375C51.582 45.9261 52.0345 48.2563 52.9395 50.4282C53.8444 52.6001 55.134 54.5005 56.8081 56.1294C58.4823 57.7583 60.3826 59.0252 62.5093 59.9302C64.6359 60.8351 66.9661 61.3102 69.5 61.3555Z" fill="#470A68"/>
</svg>
