<svg width="139" height="139" viewBox="0 0 139 139" fill="none" xmlns="http://www.w3.org/2000/svg">
<path d="M126.634 13.4043C124.716 11.1488 121.919 9.85572 118.96 9.85572H109.248V6.8178C109.248 3.05855 106.189 0 102.43 0H36.5704C32.8108 0 29.7528 3.05855 29.7528 6.81753V9.85544H20.0399C17.081 9.85544 14.2836 11.1488 12.3658 13.404C10.4676 15.6359 9.64719 18.5674 10.1155 21.4465C12.6675 37.1383 22.5427 51.0012 36.5581 58.6052C37.8387 61.6841 39.289 64.6004 40.9041 67.3174C46.0628 75.9981 52.4761 81.9974 59.5353 84.8988C60.2506 92.1322 55.4375 98.9848 48.1888 100.618C48.1733 100.621 48.1625 100.627 48.1473 100.63C46.7326 100.968 45.6795 102.238 45.6795 103.756V118.515H39.7106C34.389 118.515 30.0596 122.844 30.0596 128.166V135.783C30.0596 137.56 31.4998 139 33.2767 139H106.031C107.808 139 109.248 137.56 109.248 135.783V128.166C109.248 122.844 104.919 118.515 99.5972 118.515H93.6278V103.756C93.6278 102.235 92.5709 100.964 91.1524 100.629C91.1391 100.625 91.1263 100.621 91.113 100.618C83.8095 98.9739 78.9874 92.0524 79.778 84.7646C86.7139 81.8163 93.0148 75.8705 98.0975 67.3179C99.7126 64.6006 101.163 61.6841 102.443 58.6046C116.458 51.0003 126.333 37.1378 128.885 21.4465C129.353 18.5674 128.533 15.6362 126.634 13.4043ZM16.4661 20.4135C16.2988 19.3854 16.5831 18.3763 17.2667 17.5721C17.9603 16.7566 18.9708 16.2891 20.0396 16.2891H29.7526V22.208C29.7526 31.489 30.937 40.4789 33.1819 48.7003C24.3598 41.7289 18.2856 31.6017 16.4661 20.4135ZM99.5972 124.949C101.371 124.949 102.814 126.392 102.814 128.166V132.566H36.4935V128.166C36.4935 126.392 37.9367 124.949 39.7106 124.949H99.5972ZM87.1936 106.973V118.515H52.1142V106.973H87.1936ZM60.5512 100.539C61.3463 99.664 62.0734 98.7152 62.7236 97.6995C64.8675 94.3497 65.9928 90.544 66.0433 86.6572C67.186 86.8127 68.3392 86.8961 69.5023 86.8961C70.7677 86.8961 72.0214 86.7989 73.2629 86.6148C73.3362 91.8379 75.3691 96.7819 78.7874 100.539H60.5512V100.539ZM102.814 22.2083C102.814 38.0573 99.1742 52.9102 92.566 64.0303C86.2697 74.6263 78.0785 80.4619 69.5018 80.4619C60.9236 80.4619 52.7318 74.6266 46.4348 64.0308C39.8263 52.9105 36.1867 38.0576 36.1867 22.2088V6.81753C36.1867 6.60577 36.3589 6.43392 36.5701 6.43392H102.43C102.642 6.43392 102.814 6.60604 102.814 6.81753V22.2083ZM122.534 20.4135C120.715 31.6008 114.641 41.7278 105.819 48.6998C108.064 40.4784 109.248 31.489 109.248 22.2083V16.2894H118.96C120.029 16.2894 121.04 16.7571 121.733 17.5724C122.417 18.3763 122.701 19.3854 122.534 20.4135Z" fill="#470A68"/>
<path d="M89.0312 33.0283C88.6525 31.8642 87.6458 31.0155 86.4342 30.8391L76.7264 29.4284L72.3851 20.6318C71.843 19.5339 70.7247 18.8386 69.5003 18.8386C68.2757 18.8386 67.1574 19.5339 66.6155 20.6318L62.2742 29.4284L52.5665 30.8391C51.3546 31.015 50.3479 31.8639 49.9694 33.0286C49.5913 34.1935 49.9067 35.4717 50.7836 36.3266L57.8083 43.1737L56.1498 52.8421C55.9426 54.0491 56.4386 55.2686 57.4296 55.9886C58.4199 56.7083 59.7337 56.8031 60.8174 56.2335L69.5003 51.669L78.183 56.2335C78.6537 56.4808 79.1676 56.6027 79.6794 56.6027C80.3461 56.6027 81.0102 56.3956 81.5705 55.9883C82.5615 55.2684 83.0575 54.0489 82.8503 52.8418L81.1918 43.1734L88.2165 36.3263C89.0939 35.4717 89.4094 34.1933 89.0312 33.0283ZM75.4904 39.7468C74.7321 40.4857 74.386 41.5505 74.5652 42.5944L75.4073 47.5055L70.997 45.1868C70.5287 44.9403 70.0142 44.8176 69.5001 44.8176C68.9859 44.8176 68.4717 44.9408 68.0031 45.1868L63.5928 47.5055L64.435 42.5944C64.6141 41.5508 64.268 40.486 63.5097 39.7468L59.9422 36.269L64.8729 35.5523C65.9205 35.4003 66.8265 34.7419 67.2951 33.7926L69.5003 29.3245L71.7053 33.7926C72.1742 34.7419 73.0796 35.4 74.1275 35.5523L79.0582 36.269L75.4904 39.7468Z" fill="#470A68"/>
</svg>
